<svg width="97" height="96" viewBox="0 0 97 96" fill="none" xmlns="http://www.w3.org/2000/svg">
<g id="Networks">
<path id="Icon" fill-rule="evenodd" clip-rule="evenodd" d="M23.0442 22.5446C29.5589 16.0299 38.5589 12.0005 48.5 12.0005C58.4411 12.0005 67.4411 16.0299 73.9558 22.5446C80.4706 29.0594 84.5 38.0594 84.5 48.0005C84.5 57.9416 80.4706 66.9416 73.9558 73.4563C67.4411 79.9711 58.4411 84.0005 48.5 84.0005C38.5589 84.0005 29.5589 79.9711 23.0442 73.4563C16.5294 66.9416 12.5 57.9416 12.5 48.0005C12.5 38.0594 16.5294 29.0594 23.0442 22.5446ZM48.7296 37.1235C45.1471 38.6449 37.9871 41.7939 27.2498 46.5703C25.5062 47.2782 24.5928 47.9708 24.5097 48.648C24.3691 49.7925 25.7728 50.2431 27.6843 50.8568C27.9443 50.9403 28.2137 51.0268 28.4899 51.1185C30.3705 51.7426 32.9003 52.4728 34.2154 52.5018C35.4083 52.5281 36.7397 52.026 38.2097 50.9954C48.242 44.081 53.4207 40.5861 53.7458 40.5108C53.9752 40.4576 54.293 40.3908 54.5084 40.5862C54.7238 40.7817 54.7026 41.1518 54.6798 41.2511C54.5407 41.8564 49.0307 47.0867 46.1792 49.7934C45.2903 50.6372 44.6598 51.2357 44.5309 51.3724C44.2421 51.6786 43.9478 51.9683 43.665 52.2467C41.9179 53.9663 40.6077 55.2559 43.7375 57.3617C45.2416 58.3737 46.4452 59.2106 47.6459 60.0454C48.9572 60.9572 50.2651 61.8666 51.9573 62.9992C52.3884 63.2878 52.8002 63.5875 53.2012 63.8794C54.7273 64.9902 56.0983 65.9881 57.7921 65.829C58.7763 65.7365 59.7929 64.7916 60.3092 61.9734C61.5294 55.3133 63.9279 40.8827 64.4822 34.9362C64.5307 34.4152 64.4697 33.7485 64.4206 33.4558C64.3715 33.1631 64.269 32.7461 63.8964 32.4374C63.4551 32.0717 62.7738 31.9946 62.4691 31.9999C61.0838 32.025 58.9583 32.7796 48.7296 37.1235Z" fill="#0098EA"/>
</g>
</svg>
